<svg width="1440" height="670" viewBox="0 0 1440 670" fill="none" xmlns="http://www.w3.org/2000/svg">
<g clip-path="url(#clip0_50_142)">
<g opacity="0.9" filter="url(#filter0_f_50_142)">
<path opacity="0.6" d="M466.679 259.877C410.416 274.941 357.958 313.227 343.141 357.97C329.589 398.905 370.942 431.025 399.408 463.043C418.818 484.879 444.112 501.926 477.585 509.204C507.802 515.773 538.992 505.529 571.373 500.431C621.774 492.498 682.062 503.972 715.964 471.68C752.288 437.08 750.195 386.553 730.172 349.173C711.08 313.532 661.172 300.263 615.929 284.931C568.217 268.763 519.82 245.649 466.679 259.877Z" fill="url(#paint0_linear_50_142)" fill-opacity="0.3"/>
</g>
<g opacity="0.4">
<g opacity="0.9" filter="url(#filter1_f_50_142)">
<path d="M124.126 -201.409C53.4316 -189.955 14.1491 -148.152 -25.5378 -110.721C-62.6864 -75.6847 -98.9889 -38.9098 -92.1687 2.59117C-84.922 46.6792 -45.8638 86.4738 11.3666 113.825C71.4614 142.545 146.449 158.492 222.273 152.867C301.523 146.987 381.307 125.027 422.392 83.3319C461.517 43.6265 436.644 -4.80783 422.476 -50.305C408.75 -94.3897 400 -141.802 343.356 -170.49C283.398 -200.857 199.484 -213.618 124.126 -201.409Z" fill="url(#paint1_linear_50_142)"/>
</g>
<g filter="url(#filter2_f_50_142)">
<path opacity="0.6" d="M542.877 -69.9185C503.932 -68.1799 464.085 -49.7537 447.885 -21.0255C433.064 5.25753 455.396 33.9265 469.32 60.5302C478.816 78.6707 492.851 94.404 513.655 104.629C532.435 113.859 554.302 111.583 576.196 113.06C610.274 115.358 647.98 132.641 674.833 115.499C703.604 97.1319 709.602 61.7763 701.974 32.7624C694.698 5.09798 664.034 -11.8238 636.716 -29.4552C607.907 -48.0471 579.664 -71.5612 542.877 -69.9185Z" fill="#A098FF"/>
</g>
</g>
</g>
<defs>
<filter id="filter0_f_50_142" x="140.488" y="55.4367" width="803.958" height="655.899" filterUnits="userSpaceOnUse" color-interpolation-filters="sRGB">
<feFlood flood-opacity="0" result="BackgroundImageFix"/>
<feBlend mode="normal" in="SourceGraphic" in2="BackgroundImageFix" result="shape"/>
<feGaussianBlur stdDeviation="100" result="effect1_foregroundBlur_50_142"/>
</filter>
<filter id="filter1_f_50_142" x="-504" y="-617" width="1358.4" height="1181.99" filterUnits="userSpaceOnUse" color-interpolation-filters="sRGB">
<feFlood flood-opacity="0" result="BackgroundImageFix"/>
<feBlend mode="normal" in="SourceGraphic" in2="BackgroundImageFix" result="shape"/>
<feGaussianBlur stdDeviation="205.5" result="effect1_foregroundBlur_50_142"/>
</filter>
<filter id="filter2_f_50_142" x="179" y="-334" width="790" height="721" filterUnits="userSpaceOnUse" color-interpolation-filters="sRGB">
<feFlood flood-opacity="0" result="BackgroundImageFix"/>
<feBlend mode="normal" in="SourceGraphic" in2="BackgroundImageFix" result="shape"/>
<feGaussianBlur stdDeviation="132" result="effect1_foregroundBlur_50_142"/>
</filter>
<linearGradient id="paint0_linear_50_142" x1="384.955" y1="398.333" x2="660.677" y2="375.135" gradientUnits="userSpaceOnUse">
<stop stop-color="#A098FF"/>
<stop offset="1" stop-color="#A098FF"/>
</linearGradient>
<linearGradient id="paint1_linear_50_142" x1="132.311" y1="3.40962" x2="580.641" y2="207.153" gradientUnits="userSpaceOnUse">
<stop stop-color="#A098FF"/>
<stop offset="1" stop-color="#A098FF"/>
</linearGradient>
<clipPath id="clip0_50_142">
<rect width="1440" height="670" fill="white" transform="matrix(-1 0 0 1 1440 0)"/>
</clipPath>
</defs>
</svg>
