<svg width="11" height="12" viewBox="0 0 11 12" fill="none" xmlns="http://www.w3.org/2000/svg">
<path d="M10.947 9.58234C10.9692 9.8413 10.8876 10.0984 10.7203 10.2971C10.5528 10.4959 10.3133 10.6199 10.0543 10.6421C9.79543 10.6642 9.53829 10.5827 9.33962 10.4153C9.14086 10.2478 9.01674 10.0083 8.99455 9.74937L8.41026 2.94033L1.6075 2.28662C1.47941 2.27435 1.35504 2.23692 1.24142 2.17655C1.12779 2.11618 1.02709 2.0341 0.945225 1.93483C0.863361 1.83556 0.801777 1.72119 0.764098 1.59817C0.72642 1.47514 0.713404 1.34583 0.725616 1.21781C0.73791 1.08971 0.775268 0.965316 0.835638 0.851665C0.896007 0.738014 0.978127 0.637403 1.07743 0.555454C1.17666 0.473585 1.29104 0.412066 1.41408 0.374391C1.53711 0.336715 1.66634 0.323658 1.79442 0.335928L9.39361 1.06643C9.62808 1.084 9.84813 1.18624 10.0128 1.35405C10.1784 1.52074 10.2783 1.74166 10.2941 1.97613L10.947 9.58234Z" fill="white"/>
<rect y="10.0727" width="11.3634" height="2" rx="1" transform="rotate(-45.2689 0 10.0727)" fill="white"/>
</svg>
