<svg width="437" height="306" viewBox="0 0 437 306" fill="none" xmlns="http://www.w3.org/2000/svg">
<rect width="437" height="306" fill="transparent"/>
<path d="M123.74 266.541C101.475 266.541 80.8203 260.975 61.7773 249.842C42.832 238.709 27.8418 223.768 16.8066 205.018C5.77148 186.17 0.253906 165.857 0.253906 144.08C0.253906 127.771 3.52539 112.049 10.0684 96.9121C16.709 81.6777 25.498 68.543 36.4355 57.5078C47.4707 46.4727 60.5566 37.6348 75.6934 30.9941C90.8301 24.3535 106.553 21.0332 122.861 21.0332C153.232 21.4238 180.82 33.582 205.625 57.5078L178.232 94.8613C160.947 77.8691 142.344 69.373 122.422 69.373C109.922 69.373 97.959 72.7422 86.5332 79.4805C75.1074 86.1211 65.8789 95.252 58.8477 106.873C51.8164 118.494 48.3008 130.994 48.3008 144.373C48.3008 154.529 50.4492 164.295 54.7461 173.67C59.043 183.045 64.6582 191.004 71.5918 197.547C78.5254 204.09 86.4355 209.314 95.3223 213.221C104.209 217.029 113.193 218.934 122.275 218.934C141.318 218.934 160.02 209.949 178.379 191.98L205.625 230.359C194.102 241.785 181.748 250.672 168.564 257.02C155.381 263.367 140.439 266.541 123.74 266.541Z" fill="#858585"/>
<path d="M360.881 259.239C340.246 267.605 319.014 270.206 297.183 267.044C275.443 263.844 255.938 255.63 238.667 242.399C221.359 229.079 208.614 212.327 200.432 192.145C194.304 177.032 191.429 161.232 191.806 144.746C192.236 128.132 195.446 112.658 201.437 98.3218C207.517 83.9491 216.324 70.8421 227.857 59.001C239.39 47.1599 252.713 38.1757 267.827 32.0484C296.12 20.9997 326.254 21.9021 358.231 34.7557L346.879 79.6643C324.476 70.4112 304.044 69.527 285.581 77.0119C273.997 81.7082 264.176 89.3251 256.119 99.8625C248.026 110.309 242.904 122.239 240.754 135.65C238.604 149.061 240.042 161.966 245.069 174.365C248.884 183.777 254.545 192.02 262.049 199.094C269.553 206.168 277.747 211.434 286.631 214.893C295.515 218.351 304.809 220.221 314.512 220.502C324.178 220.693 333.22 219.082 341.637 215.67C359.285 208.516 373.24 193.163 383.503 169.613L423.173 194.944C416.786 209.862 408.677 222.739 398.844 233.575C389.011 244.411 376.357 252.965 360.881 259.239Z" fill="#4D4D4D"/>
</svg>
