<svg width="24" height="15" viewBox="0 0 21 12" fill="none" xmlns="http://www.w3.org/2000/svg">
<path d="M16.5158 11.6923C16.3702 11.867 16.1612 11.9766 15.9348 11.9972C15.7083 12.0177 15.483 11.9474 15.3083 11.8018C15.1337 11.6562 15.024 11.4472 15.0035 11.2208C14.983 10.9943 15.0532 10.769 15.1988 10.5943L19.0268 6.00034L15.1988 1.40634C15.1267 1.31986 15.0724 1.22003 15.0389 1.11255C15.0054 1.00506 14.9933 0.892034 15.0035 0.779907C15.0137 0.66778 15.0458 0.558754 15.0981 0.459053C15.1504 0.359353 15.2219 0.270931 15.3083 0.198835C15.3948 0.126739 15.4946 0.0723823 15.6021 0.0388672C15.7096 0.00535222 15.8226 -0.00666444 15.9348 0.00350357C16.0469 0.0136716 16.1559 0.045825 16.2556 0.0981281C16.3553 0.150431 16.4437 0.22186 16.5158 0.308335L20.7918 5.44033C20.9268 5.59559 21.0007 5.79462 20.9998 6.00034C21.0002 6.20596 20.9263 6.4048 20.7918 6.56034L16.5158 11.6923Z" fill="white"/>
<path d="M4.48401 0.308338C4.62961 0.133693 4.83863 0.0240409 5.06508 0.00350571C5.29153 -0.0170295 5.51686 0.0532334 5.69151 0.198837C5.86615 0.344441 5.9758 0.553459 5.99634 0.779909C6.01687 1.00636 5.94661 1.23169 5.80101 1.40634L1.97301 6.00034L5.80101 10.5943C5.8731 10.6808 5.92746 10.7806 5.96098 10.8881C5.99449 10.9956 6.00651 11.1086 5.99634 11.2208C5.98617 11.3329 5.95402 11.4419 5.90172 11.5416C5.84941 11.6413 5.77798 11.7297 5.69151 11.8018C5.60503 11.8739 5.5052 11.9283 5.39772 11.9618C5.29024 11.9953 5.17721 12.0073 5.06508 11.9972C4.95295 11.987 4.84393 11.9548 4.74423 11.9025C4.64453 11.8502 4.5561 11.7788 4.48401 11.6923L0.208009 6.56034C0.0730446 6.40508 -0.000879326 6.20605 8.58307e-06 6.00034C-0.000335486 5.79472 0.0735198 5.59588 0.208009 5.44034L4.48401 0.308338Z" fill="#99CC00"/>
</svg>
