<svg width="24" height="24" viewBox="0 0 24 24" fill="none" xmlns="http://www.w3.org/2000/svg">
<path d="M12.75 6.432C12.75 6.23309 12.671 6.04232 12.5304 5.90167C12.3897 5.76102 12.1989 5.682 12 5.682C11.8011 5.682 11.6104 5.76102 11.4697 5.90167C11.329 6.04232 11.25 6.23309 11.25 6.432H12.75ZM11.25 12.432C11.25 12.6309 11.329 12.8217 11.4697 12.9623C11.6104 13.103 11.8011 13.182 12 13.182C12.1989 13.182 12.3897 13.103 12.5304 12.9623C12.671 12.8217 12.75 12.6309 12.75 12.432H11.25ZM10.03 9.902C9.96137 9.82831 9.87857 9.76921 9.78657 9.72822C9.69457 9.68723 9.59526 9.66518 9.49455 9.66341C9.39385 9.66163 9.29382 9.68016 9.20043 9.71788C9.10705 9.7556 9.02221 9.81174 8.95099 9.88296C8.87978 9.95418 8.82363 10.039 8.78591 10.1324C8.74819 10.2258 8.72966 10.3258 8.73144 10.4265C8.73322 10.5272 8.75526 10.6265 8.79625 10.7185C8.83724 10.8105 8.89635 10.8933 8.97003 10.962L10.03 9.902ZM12 12.932L11.47 13.462C11.6107 13.6024 11.8013 13.6813 12 13.6813C12.1988 13.6813 12.3894 13.6024 12.53 13.462L12 12.932ZM15.03 10.962C15.1625 10.8198 15.2346 10.6318 15.2312 10.4375C15.2278 10.2432 15.1491 10.0578 15.0117 9.92038C14.8742 9.78296 14.6889 9.70425 14.4946 9.70082C14.3003 9.6974 14.1122 9.76952 13.97 9.902L15.03 10.962ZM11.25 6.432V12.432H12.75V6.432H11.25ZM8.97003 10.962L11.47 13.462L12.53 12.402L10.03 9.902L8.97003 10.962ZM12.53 13.462L15.03 10.962L13.97 9.902L11.47 12.402L12.53 13.462Z" fill="black"/>
<path d="M8.39798 15.37C8.3146 15.313 8.22058 15.2735 8.12155 15.2538C8.02252 15.2341 7.92052 15.2345 7.82168 15.2552C7.72283 15.2758 7.62918 15.3162 7.54632 15.3739C7.46346 15.4316 7.39311 15.5055 7.33948 15.591C7.28586 15.6766 7.25006 15.7721 7.23424 15.8718C7.21842 15.9715 7.2229 16.0734 7.24741 16.1714C7.27192 16.2693 7.31596 16.3613 7.37689 16.4419C7.43782 16.5224 7.51438 16.5898 7.60198 16.64L8.39798 15.37ZM16.406 16.635C16.5652 16.5239 16.6751 16.3554 16.7126 16.1649C16.7501 15.9745 16.7123 15.7769 16.6072 15.6137C16.502 15.4505 16.3377 15.3345 16.1487 15.29C15.9598 15.2454 15.7609 15.2759 15.594 15.375L16.406 16.635ZM7.60198 16.641L7.68198 16.691L8.47698 15.419L8.39798 15.37L7.60198 16.641ZM7.68198 16.691C8.99147 17.5106 10.5072 17.9407 12.052 17.9309C13.5968 17.9212 15.1069 17.4711 16.406 16.635L15.594 15.374C14.5343 16.0561 13.3023 16.4226 12.042 16.4306C10.7818 16.4385 9.54525 16.0877 8.47698 15.419L7.68098 16.69L7.68198 16.691Z" fill="black"/>
</svg>
